<svg width="26" height="26" viewBox="0 0 26 26" fill="none" xmlns="http://www.w3.org/2000/svg">
<path fill-rule="evenodd" clip-rule="evenodd" d="M21.64 13.2046C21.64 12.5664 21.5827 11.9527 21.4764 11.3636H13V14.845H17.8436C17.635 15.97 17.0009 16.9232 16.0477 17.5614V19.8196H18.9564C20.6582 18.2527 21.64 15.9455 21.64 13.2046Z" fill="#4285F4"/>
<path fill-rule="evenodd" clip-rule="evenodd" d="M12.9998 22C15.4298 22 17.467 21.1941 18.9561 19.8196L16.0475 17.5614C15.2416 18.1014 14.2107 18.4205 12.9998 18.4205C10.6557 18.4205 8.67158 16.8373 7.96385 14.71H4.95703V17.0418C6.43794 19.9832 9.48158 22 12.9998 22Z" fill="#34A853"/>
<path fill-rule="evenodd" clip-rule="evenodd" d="M7.96409 14.71C7.78409 14.17 7.68182 13.5932 7.68182 13C7.68182 12.4068 7.78409 11.83 7.96409 11.29V8.95819H4.95727C4.34773 10.1732 4 11.5477 4 13C4 14.4523 4.34773 15.8268 4.95727 17.0418L7.96409 14.71Z" fill="#FBBC05"/>
<path fill-rule="evenodd" clip-rule="evenodd" d="M12.9998 7.57955C14.3211 7.57955 15.5075 8.03364 16.4402 8.92545L19.0216 6.34409C17.4629 4.89182 15.4257 4 12.9998 4C9.48158 4 6.43794 6.01682 4.95703 8.95818L7.96385 11.29C8.67158 9.16273 10.6557 7.57955 12.9998 7.57955Z" fill="#EA4335"/>
</svg>
